<?xml version="1.0" encoding="utf-8"?>
<!-- Generator: Adobe Illustrator 24.0.0, SVG Export Plug-In . SVG Version: 6.00 Build 0)  -->
<svg version="1.1" id="NMBU_logo" xmlns="http://www.w3.org/2000/svg" xmlns:xlink="http://www.w3.org/1999/xlink" x="0px" y="0px"
	 viewBox="0 0 288 560" style="enable-background:new 0 0 288 560;" xml:space="preserve">
<style type="text/css">
	.st0{fill:#FFFFFF;}
	.st1{fill:none;}
</style>
<title>NMBUwhite</title>
<g>
	<polygon class="st0" points="210.1,490.1 187.6,504.2 187.6,510.6 220.7,510.6 220.7,504.7 198,504.7 220.7,490.4 220.7,484.1 
		187.6,484.1 187.6,490.1 	"/>
	<polygon class="st0" points="183.6,421 150.5,421 150.5,428.7 174.1,437.5 150.5,446.1 150.5,454.3 183.6,454.3 183.6,448.4 
		159.7,448.4 183.1,439.9 183.1,435.5 160,426.9 183.6,426.9 	"/>
	<path class="st0" d="M67,323.9h20.3c4.7,0,7.9,2.1,7.9,6.9s-3.2,7-7.9,7H67v6h20.3c7.9,0,13.3-4.4,13.3-13s-5.4-13-13.3-13H67
		V323.9z"/>
	<path class="st0" d="M112.5,374.2c-2.9,0-5.5,1.4-7.1,3.8c-1.3,2.3-2,5-1.8,7.7v13.2h33.2v-13.2c0.3-3.1-0.5-6.2-2.2-8.8
		c-1.8-2.2-4.6-3.5-7.4-3.3c-3.2,0-6.1,1.8-7.4,4.7C118.2,375.6,115.4,374,112.5,374.2z M108.7,392.8v-7.4c0-2.7,1-5.2,4.2-5.2
		c3.2,0,4.1,2.3,4.1,5v7.6H108.7z M131.2,385.4v7.4H122v-7.6c0-3.2,1.3-5.7,4.8-5.7C130.4,379.6,131.2,382.6,131.2,385.4z"/>
	<path class="st0" d="M166,341.8v43.3h-14.7v5.8H166v14.7h5.7v-14.7h43.4v72.8h5.8v-75.6c0-1.7-1.4-3-3-3h-46.1v-46.2
		c0-1.7-1.4-3-3-3h-53.5v5.9H166z"/>
	<path class="st0" d="M136.7,440.5v-5.8h-14.6v-14.5h-5.8v14.5H73.1v-72.2h-5.8v75.1c0,1.7,1.4,3,3,3h46.1v46.1c0,1.7,1.4,3,3,3
		h53.9v-5.8h-51.1v-43.4H136.7z"/>
	<path class="st0" d="M116.4,255.4l-14.6,9.5h14.6v3.3H97.2V264l13.6-8.6H97.2v-3.3h19.2V255.4z"/>
	<path class="st0" d="M109.8,234.8c3.8,0.1,6.8,3.2,6.7,7c-0.1,3.8-3.2,6.8-7,6.7c-3.7-0.1-6.7-3.1-6.7-6.8
		c-0.1-3.7,2.9-6.8,6.6-6.9C109.5,234.8,109.6,234.8,109.8,234.8z M109.8,238c-2-0.3-3.9,1.2-4.2,3.2c-0.3,2,1.2,3.9,3.2,4.2
		c0.3,0,0.6,0,0.9,0c2,0.3,3.9-1.2,4.2-3.2c0.3-2-1.2-3.9-3.2-4.2C110.4,237.9,110.1,237.9,109.8,238z"/>
	<path class="st0" d="M106.3,223.7v1.1c0,2.4,1.4,3.5,3.9,3.5h6.3v3h-13.3v-3h2.2c-1.5-0.7-2.3-2.2-2.3-3.8v-0.8L106.3,223.7z"/>
	<path class="st0" d="M116.3,219c1.7-0.2,2.9-1.6,2.8-3.3c0-2.5-1.3-3.7-4-3.7h-1.4c1.3,0.8,2,2.3,1.9,3.8c0,3.5-2.9,6.4-6.4,6.4
		c-3.5,0-6.4-2.9-6.4-6.4c-0.2-1.6,0.6-3.1,1.9-3.9h-1.7v-3h12.1c3.4-0.3,6.5,2.2,6.8,5.6c0,0.4,0,0.8,0,1.2c0.2,3-1.9,5.7-4.8,6.3
		L116.3,219z M109.3,211.9c-1.9,0.2-3.2,1.9-3.1,3.7c0.2,1.9,1.9,3.2,3.7,3.1c1.8-0.2,3.1-1.6,3.1-3.4c0-1.8-1.4-3.4-3.3-3.4
		C109.6,211.9,109.5,211.9,109.3,211.9z"/>
	<path class="st0" d="M112.6,193.1c2.6,0.8,4.3,3.3,4.2,6c-0.3,3.9-3.6,6.8-7.5,6.5c-3.4-0.2-6.1-2.9-6.5-6.2
		c-0.3-3.3,2.2-6.2,5.5-6.5c0.4,0,0.9,0,1.3,0c0.3,0,0.7,0,1,0v9.7c1.9,0,3.5-1.7,3.4-3.6c0.1-1.5-0.8-2.9-2.3-3.3L112.6,193.1z
		 M108.3,196.1c-1.7,0-3,1.3-3,3c0,0.1,0,0.1,0,0.2c-0.1,1.7,1.1,3.1,2.8,3.2c0.1,0,0.1,0,0.2,0V196.1z"/>
	<path class="st0" d="M112,188c1.3-0.1,2.4-1.3,2.3-2.6c0,0,0-0.1,0-0.1c0-1.3-0.7-2-1.5-2c-0.8,0-1.2,0.5-1.4,1.5l-0.5,2
		c-0.2,2-1.8,3.5-3.8,3.5c-2.5-0.2-4.4-2.3-4.3-4.8c-0.3-2.4,1.3-4.6,3.7-5.1l0.8,2.7c-1.2,0.1-2.1,1.2-2,2.4
		c-0.1,0.9,0.6,1.8,1.5,1.9c0.7,0,1.2-0.5,1.4-1.4l0.4-2c0.2-2.1,1.9-3.7,4-3.8c2.5,0.1,4.4,2.3,4.2,4.7c0,0.1,0,0.2,0,0.3
		c0.3,2.6-1.4,4.9-4,5.4L112,188z"/>
	<path class="st0" d="M116.4,170h-13.2v-3h1.7c-1.3-0.9-2.1-2.3-2.1-3.9c-0.1-1.7,0.8-3.2,2.3-4c-1.5-0.9-2.4-2.5-2.3-4.3
		c-0.1-2.5,1.9-4.6,4.4-4.7c0.2,0,0.4,0,0.6,0h8.6v3h-8c-1.3-0.2-2.6,0.8-2.7,2.2c0,0.1,0,0.3,0,0.4c0,1.5,1.2,2.8,2.7,2.8
		c0.1,0,0.2,0,0.3,0h7.8v3h-8.1c-1.3-0.2-2.5,0.8-2.7,2.1c0,0.2,0,0.3,0,0.5c0,1.5,1.2,2.7,2.6,2.7c0.1,0,0.3,0,0.4,0h7.8L116.4,170
		z"/>
	<path class="st0" d="M96.5,144.5c0-1.1,0.9-2.1,2.1-2.1s2.1,0.9,2.1,2.1s-0.9,2.1-2.1,2.1S96.5,145.6,96.5,144.5z M116.4,146h-13.2
		v-3h13.2L116.4,146z"/>
	<path class="st0" d="M116.4,138.6H96.7v-3.2h19.6V138.6z"/>
	<path class="st0" d="M103.2,131v-3h14.5c2.1-0.2,4,1.4,4.2,3.5c0,0.1,0,0.3,0,0.4c0,0.6-0.1,1.2-0.2,1.8h-2.6v-1
		c0-1.2-0.6-1.6-1.7-1.6L103.2,131z M96.4,129.5c0-1.1,0.9-2.1,2.1-2.1c1.1,0,2.1,0.9,2.1,2.1c0,1.1-0.9,2-2,2.1
		c-1.1,0.1-2.1-0.8-2.2-1.9c0-0.1,0-0.1,0-0.2H96.4z"/>
	<path class="st0" d="M103.6,114.3l-1.7-1.4l1.4-1.7l1.7,1.4c1.3-1.1,3-1.7,4.7-1.7c3.7-0.2,6.8,2.7,7,6.4c0,0.1,0,0.3,0,0.4
		c0,1.2-0.3,2.4-0.8,3.4l1.7,1.4l-1.4,1.7l-1.7-1.4c-1.3,1.1-3,1.7-4.8,1.7c-3.7,0.2-6.8-2.7-7-6.4c0-0.1,0-0.3,0-0.4
		C102.8,116.6,103.1,115.3,103.6,114.3z M112.1,120.9l-6-4.8c-0.3,0.5-0.4,1.1-0.4,1.7c0,2.1,1.7,3.7,3.8,3.7c0.1,0,0.3,0,0.4,0
		C110.6,121.5,111.4,121.3,112.1,120.9L112.1,120.9z M109.8,114.1c-0.8,0-1.5,0.2-2.2,0.5l6,4.8c0.2-0.5,0.4-1,0.4-1.6
		c0-2.1-1.7-3.7-3.8-3.7C110,114.1,109.9,114.1,109.8,114.1z"/>
	<path class="st0" d="M109.8,108.4h-2.8v-7.7h2.8V108.4z"/>
	<path class="st0" d="M109.8,78.9c3.8,0.1,6.8,3.2,6.7,7c-0.1,3.8-3.2,6.8-7,6.7c-3.7-0.1-6.7-3.1-6.7-6.8c-0.1-3.7,2.9-6.8,6.6-6.9
		C109.5,78.9,109.6,78.9,109.8,78.9z M109.8,82.1c-2-0.3-3.9,1.2-4.2,3.2c-0.3,2,1.2,3.9,3.2,4.2c0.3,0,0.6,0,0.9,0
		c2,0.3,3.9-1.2,4.2-3.2c0.3-2-1.2-3.9-3.2-4.2C110.4,82.1,110.1,82.1,109.8,82.1z"/>
	<path class="st0" d="M116.3,73.7c1.7-0.2,2.9-1.6,2.8-3.3c0-2.5-1.3-3.7-4-3.7h-1.4c1.3,0.8,2,2.3,1.9,3.8c0,3.5-2.9,6.4-6.4,6.4
		c-3.5,0-6.4-2.9-6.4-6.4c-0.2-1.6,0.6-3.1,1.9-3.9h-1.7v-3h12.1c3.4-0.3,6.5,2.2,6.8,5.6c0,0.4,0,0.8,0,1.2c0.2,3-1.9,5.7-4.8,6.3
		L116.3,73.7z M109.3,66.6c-1.9,0.2-3.2,1.9-3.1,3.7c0.2,1.9,1.9,3.2,3.7,3.1c1.8-0.2,3.1-1.6,3.1-3.4c0-1.8-1.4-3.4-3.3-3.4
		C109.6,66.5,109.5,66.5,109.3,66.6z"/>
	<path class="st0" d="M152.5,268.4h-19.6v-3h8.1c-1.3-1-2.1-2.5-2-4.2c0-3.3,2.6-6.1,6-6.1c0.3,0,0.6,0,0.9,0.1
		c3.5-0.4,6.6,2.1,7,5.6c0,0.2,0,0.4,0,0.6c0.1,1.6-0.7,3.2-2.1,4.1h1.8L152.5,268.4z M141.8,261.8c0,2,1.7,3.6,3.7,3.6
		c0.1,0,0.3,0,0.4,0c2,0.3,3.9-1.2,4.2-3.2c0-0.1,0-0.2,0-0.4c0-2.1-1.6-3.6-4.2-3.6S141.8,259.7,141.8,261.8z"/>
	<path class="st0" d="M132.5,250.2c0-1.1,0.9-2.1,2-2.1c1.1,0,2.1,0.9,2.1,2c0,1.1-0.9,2.1-2,2.1c0,0,0,0,0,0
		C133.4,252.3,132.5,251.4,132.5,250.2C132.5,250.2,132.5,250.2,132.5,250.2z M152.4,251.8h-13.1v-3h13.2L152.4,251.8z"/>
	<path class="st0" d="M145.9,231.6c3.8,0.1,6.8,3.2,6.7,7c-0.1,3.8-3.2,6.8-7,6.7c-3.7-0.1-6.7-3.1-6.7-6.8
		c-0.1-3.7,2.9-6.8,6.6-6.9C145.6,231.6,145.8,231.6,145.9,231.6z M145.9,234.8c-2-0.2-3.8,1.3-4,3.4c-0.2,2,1.3,3.8,3.4,4
		c0.2,0,0.4,0,0.7,0c2,0.3,4-1.1,4.3-3.1c0.3-2-1.1-4-3.1-4.3C146.7,234.7,146.3,234.7,145.9,234.8z"/>
	<path class="st0" d="M152.5,222v3l-13.2,5.4v-3.5l9.4-3.5l-9.4-3.4v-3.3L152.5,222z"/>
	<path class="st0" d="M132.5,212.7c0-1.1,0.9-2.1,2-2.1c1.1,0,2.1,0.9,2.1,2c0,1.1-0.9,2.1-2,2.1c0,0,0,0,0,0
		C133.4,214.7,132.5,213.8,132.5,212.7z M152.4,214.2h-13.1v-3h13.2L152.4,214.2z"/>
	<path class="st0" d="M139.3,202.8v-2.7h2.8v2.7h6c1.1,0,1.6-0.5,1.6-1.7c0-0.4,0-0.7,0-1.1h2.6c0.2,0.6,0.3,1.3,0.3,1.9
		c0.2,2-1.3,3.8-3.3,3.9c-0.2,0-0.4,0-0.6,0h-6.6v2.4h-2.8v-0.7c0.1-1-0.7-1.9-1.7-2c-0.1,0-0.2,0-0.3,0h-2v-3L139.3,202.8z"/>
	<path class="st0" d="M148.8,185c2.6,0.8,4.3,3.3,4.2,6c-0.2,3.9-3.4,6.9-7.3,6.7c-3.5-0.1-6.4-2.9-6.7-6.4
		c-0.2-3.4,2.5-6.3,5.9-6.5c0.3,0,0.7,0,1,0c0.3,0,0.7,0,1,0v9.7c1.9,0,3.5-1.7,3.4-3.6c0.1-1.5-0.8-2.9-2.3-3.3L148.8,185z
		 M144.5,188c-1.7,0-3,1.3-3,3c0,0.1,0,0.1,0,0.2c-0.1,1.7,1.1,3.1,2.8,3.2c0.1,0,0.1,0,0.2,0V188z"/>
	<path class="st0" d="M152.5,178.4v3h-13.2v-3h1.7c-1.4-0.8-2.2-2.3-2.1-3.9c-0.1-2.6,2-4.8,4.6-4.8c0.2,0,0.4,0,0.7,0h8.4v3.2h-7.8
		c-1.6,0-3,0.7-3,2.7c0,1.5,1.2,2.7,2.8,2.7c0.1,0,0.2,0,0.3,0L152.5,178.4z"/>
	<path class="st0" d="M148.2,164.1c1.3-0.1,2.3-1.3,2.2-2.6c0,0,0,0,0-0.1c0-1.3-0.7-2-1.5-2c-0.8,0-1.2,0.5-1.4,1.5l-0.5,2
		c-0.2,2-1.8,3.5-3.8,3.5c-2.5-0.2-4.4-2.3-4.3-4.9c-0.3-2.4,1.3-4.6,3.7-5.1l0.8,2.7c-1.2,0.2-2.1,1.2-2,2.4
		c-0.1,0.9,0.6,1.8,1.5,1.9c0,0,0,0,0,0c0.7,0,1.3-0.6,1.4-1.3l0.4-2c0.2-2.1,1.9-3.7,4-3.8c2.5,0.1,4.4,2.3,4.2,4.7
		c0,0.1,0,0.2,0,0.2c0.3,2.6-1.4,5-4,5.5L148.2,164.1z"/>
	<path class="st0" d="M144.9,146.1l7.6-5.5v3.9l-5.4,3.9l1.7,1.6h3.7v3h-19.6v-3h11.7l-5.3-5.1v-4.1L144.9,146.1z"/>
	<path class="st0" d="M145,135.2l-0.4-3.5c0-0.8-0.5-1-1-1c-1.1,0-2,0.8-2,2.5c-0.1,1.4,1,2.6,2.4,2.7l-0.7,2.9
		c-2.7-0.4-4.6-2.9-4.3-5.5c0-4.1,2.3-5.6,4.9-5.6h6.5c0.7,0,1.4-0.1,2.1-0.2v3c-0.6,0.1-1.1,0.2-1.7,0.2c1.4,0.9,2.1,2.4,2.1,4.1
		c0.2,2.3-1.5,4.3-3.8,4.5c-0.1,0-0.1,0-0.2,0C146.8,139.2,145,137.4,145,135.2z M147,130.8h-0.6l0.5,3.4c0.2,1,0.7,1.8,1.8,1.8
		c1,0,1.7-0.8,1.7-1.8c0,0,0-0.1,0-0.1c0.2-1.7-1-3.1-2.7-3.3C147.5,130.8,147.3,130.8,147,130.8z"/>
	<path class="st0" d="M157.7,123.7h-18.3v-3h1.8c-1.4-0.9-2.2-2.5-2.1-4.2c0-3.3,2.6-6.1,6-6.1c0.3,0,0.6,0,0.9,0.1
		c3.5-0.4,6.6,2.2,6.9,5.6c0,0.2,0,0.4,0,0.5c0.1,1.6-0.6,3-1.8,4h6.6V123.7z M141.8,117.1c0.1,2,1.7,3.6,3.7,3.6c0.1,0,0.2,0,0.3,0
		c2,0.3,3.8-1,4.1-3c0.3-2-1-3.8-3-4.1c-0.4-0.1-0.8-0.1-1.1,0c-2-0.2-3.8,1.2-4,3.1C141.8,116.8,141.8,116.9,141.8,117.1z"/>
	<path class="st0" d="M148.8,95.3c2.6,0.8,4.3,3.3,4.2,6c-0.1,3.9-3.4,6.9-7.3,6.8c-3.5-0.1-6.4-2.9-6.7-6.4
		c-0.3-3.3,2.2-6.2,5.5-6.5c0.4,0,0.9,0,1.3,0c0.3,0,0.7,0,1,0v9.7c1.9,0,3.5-1.7,3.4-3.6c0,0,0,0,0,0c0.1-1.5-0.8-2.9-2.3-3.3
		L148.8,95.3z M144.5,98.4c-1.7,0-3,1.4-2.9,3.1c0,0,0,0.1,0,0.1c-0.1,1.7,1.1,3.1,2.8,3.2c0.1,0,0.1,0,0.2,0L144.5,98.4z"/>
	<path class="st0" d="M152.5,91.9h-19.6v-3h19.6V91.9z"/>
	<path class="st0" d="M132.5,82.9c0-1.1,0.9-2.1,2.1-2.1s2.1,0.9,2.1,2.1s-0.9,2.1-2.1,2.1S132.5,84,132.5,82.9z M152.4,84.4h-13.1
		v-3h13.2L152.4,84.4z"/>
	<path class="st0" d="M152.5,75c1.7-0.2,2.9-1.6,2.8-3.3c0-2.5-1.3-3.7-4-3.7H150c1.3,0.8,2,2.3,1.9,3.8c0,3.5-2.9,6.4-6.4,6.4
		c-3.5,0-6.4-2.9-6.4-6.4c-0.2-1.6,0.6-3.1,1.9-3.9h-1.7v-3h12.1c3.4-0.3,6.5,2.2,6.8,5.6c0,0.4,0,0.8,0,1.2c0.2,3-1.9,5.7-4.8,6.3
		L152.5,75z M145.5,67.9c-1.9,0.2-3.2,1.9-3.1,3.7c0.2,1.9,1.9,3.2,3.7,3.1c1.7-0.2,3-1.6,3.1-3.3c0.1-1.9-1.4-3.4-3.2-3.5
		C145.8,67.9,145.7,67.9,145.5,67.9z"/>
	<path class="st0" d="M148.8,49c2.6,0.8,4.3,3.3,4.2,6c-0.1,3.9-3.4,6.9-7.3,6.8c-3.5-0.1-6.4-2.9-6.7-6.4c-0.3-3.3,2.2-6.2,5.5-6.5
		c0.4,0,0.9,0,1.3,0c0.3,0,0.7,0,1,0v9.7c1.9,0,3.5-1.7,3.4-3.6c0,0,0,0,0,0c0.1-1.5-0.8-2.9-2.3-3.3L148.8,49z M144.5,52.1
		c-1.7,0-3,1.3-3,3c0,0.1,0,0.2,0,0.3c-0.1,1.7,1.1,3.1,2.8,3.2c0.1,0,0.1,0,0.2,0V52.1z"/>
	<path class="st0" d="M189.1,263.5c0.1,2.7-2.1,4.9-4.7,5c-0.2,0-0.4,0-0.5,0h-8.3v-3.2h7.8c1.6,0,3-0.8,3-2.7
		c0.1-1.4-1-2.7-2.5-2.8c-0.2,0-0.4,0-0.5,0h-7.8v-3h10.8c0.8,0,1.6,0,2.4,0v3c-0.5,0-1,0-1.4,0
		C188.4,260.8,189.1,262.1,189.1,263.5z"/>
	<path class="st0" d="M188.7,249.3v3h-13.2v-3h1.7c-1.4-0.8-2.2-2.3-2.1-3.9c-0.1-2.6,1.9-4.7,4.5-4.8c0.2,0,0.5,0,0.7,0h8.4v3h-7.9
		c-1.6,0-3,0.7-3,2.7c0,1.5,1.3,2.8,2.8,2.8c0.1,0,0.1,0,0.2,0L188.7,249.3z"/>
	<path class="st0" d="M168.7,235.1c0-1.1,0.9-2,2-2.1c0,0,0,0,0.1,0c1.1,0,2.1,0.9,2.1,2.1c0,1.1-0.9,2.1-2.1,2.1l0,0
		C169.6,237.2,168.7,236.2,168.7,235.1L168.7,235.1z M188.6,236.6h-13.1v-3h13.2L188.6,236.6z"/>
	<path class="st0" d="M188.7,222.4v3l-13.2,5.4v-3.5l9.4-3.5l-9.4-3.4v-3.3L188.7,222.4z"/>
	<path class="st0" d="M184.9,203.4c2.6,0.8,4.3,3.3,4.2,6c-0.1,3.9-3.4,6.9-7.3,6.8c-3.5-0.1-6.4-2.9-6.7-6.4
		c-0.3-3.3,2.2-6.2,5.5-6.5c0.4,0,0.9,0,1.3,0c0.3,0,0.7,0,1,0v9.7c1.9-0.1,3.5-1.7,3.4-3.6c0.1-1.5-0.9-2.9-2.3-3.3L184.9,203.4z
		 M180.6,206.4c-1.7,0-3,1.3-3,3c0,0.1,0,0.2,0,0.3c0,1.7,1.3,3.1,3,3.2V206.4z"/>
	<path class="st0" d="M178.6,192.2v1c0,2.4,1.4,3.6,3.9,3.6h6.3v3h-13.3v-3h2.3c-1.5-0.7-2.4-2.2-2.3-3.8c0-0.3,0-0.6,0-0.8
		L178.6,192.2z"/>
	<path class="st0" d="M184.4,187.8c1.3-0.1,2.3-1.3,2.2-2.7c0-1.3-0.7-2-1.5-2s-1.3,0.5-1.5,1.5l-0.4,2c-0.2,2-1.9,3.5-3.9,3.6
		c-2.5-0.2-4.4-2.3-4.3-4.9c-0.3-2.4,1.3-4.6,3.7-5.1l0.8,2.7c-1.2,0.1-2.1,1.2-2,2.4c-0.1,0.9,0.6,1.8,1.5,1.9
		c0.7,0,1.3-0.6,1.4-1.3l0.4-2c0.2-2.1,1.9-3.8,4-3.9c2.5,0.1,4.4,2.3,4.2,4.7c0,0.1,0,0.2,0,0.3c0.3,2.6-1.4,4.9-4,5.4L184.4,187.8
		z"/>
	<path class="st0" d="M168.7,175.1c0-1.1,0.9-2.1,2-2.1c0,0,0,0,0,0c1.1,0,2,0.9,2,2c0,0,0,0,0,0.1c0,1.1-0.9,2-2,2c0,0,0,0-0.1,0
		C169.6,177.2,168.7,176.3,168.7,175.1C168.7,175.1,168.7,175.1,168.7,175.1z M188.6,176.7h-13.1v-3h13.2L188.6,176.7z"/>
	<path class="st0" d="M175.5,165.2v-2.7h2.8v2.7h6c1.2,0,1.7-0.5,1.7-1.7c0-0.4,0-0.7,0-1.1h2.6c0.2,0.6,0.3,1.3,0.3,1.9
		c0.2,2-1.3,3.8-3.3,4c-0.2,0-0.4,0-0.6,0h-6.6v2.4h-2.8v-0.7c0.1-1-0.7-1.9-1.7-2c-0.1,0-0.3,0-0.4,0h-2v-3L175.5,165.2z"/>
	<path class="st0" d="M184.9,147.4c2.6,0.8,4.3,3.3,4.2,6c-0.1,3.9-3.4,6.9-7.3,6.8c-3.5-0.1-6.4-2.9-6.7-6.4
		c-0.3-3.3,2.2-6.2,5.5-6.5c0.4,0,0.9,0,1.3,0c0.3,0,0.7,0,1,0v9.7c1.9-0.1,3.5-1.7,3.4-3.6c0.2-1.5-0.8-2.9-2.3-3.3L184.9,147.4z
		 M180.6,150.4c-1.7,0-3,1.3-3,3c0,0.1,0,0.1,0,0.2c-0.1,1.7,1.1,3.1,2.8,3.2c0.1,0,0.1,0,0.2,0V150.4z"/>
	<path class="st0" d="M175.5,140v-2.7h2.8v2.7h6c1.2,0,1.7-0.5,1.7-1.7c0-0.4,0-0.7,0-1.1h2.6c0.2,0.6,0.3,1.3,0.3,1.9
		c0.2,2-1.3,3.8-3.4,4c-0.2,0-0.4,0-0.6,0h-6.6v2.4h-2.8v-0.7c0.1-1-0.7-1.9-1.7-2c-0.1,0-0.3,0-0.4,0h-2V140L175.5,140z"/>
	<rect x="17.9" y="0" class="st1" width="252.2" height="560"/>
</g>
</svg>
