<?xml version="1.0" encoding="utf-8"?>
<!-- Generator: Adobe Illustrator 24.0.0, SVG Export Plug-In . SVG Version: 6.00 Build 0)  -->
<svg version="1.1" id="NMBU_logo" xmlns="http://www.w3.org/2000/svg" xmlns:xlink="http://www.w3.org/1999/xlink" x="0px" y="0px"
	 viewBox="0 0 560 288" style="enable-background:new 0 0 560 288;" xml:space="preserve">
<style type="text/css">
	.st0{fill:#FFFFFF;}
	.st1{fill:none;}
</style>
<title>NMBUwhite</title>
<polygon class="st0" points="69.9,210.1 55.8,187.6 49.4,187.6 49.4,220.7 55.3,220.7 55.3,198 69.6,220.7 75.9,220.7 75.9,187.6 
	69.9,187.6 "/>
<polygon class="st0" points="139,183.6 139,150.5 131.3,150.5 122.5,174.1 113.9,150.5 105.7,150.5 105.7,183.6 111.6,183.6 
	111.6,159.7 120.1,183.1 124.5,183.1 133.1,160 133.1,183.6 "/>
<path class="st0" d="M236.1,67v20.3c0,4.7-2.1,7.9-6.9,7.9c-4.8,0-7-3.2-7-7.9V67h-6v20.3c0,7.9,4.4,13.3,13,13.3
	c8.5,0,13-5.4,13-13.3V67H236.1z"/>
<path class="st0" d="M185.8,112.5c0-2.9-1.4-5.5-3.8-7.1c-2.3-1.3-5-2-7.7-1.8h-13.2v33.2h13.2c3.1,0.3,6.2-0.5,8.8-2.2
	c2.2-1.8,3.5-4.6,3.3-7.4c0-3.2-1.8-6.1-4.7-7.4C184.4,118.2,186,115.4,185.8,112.5z M167.2,108.7h7.4c2.7,0,5.2,1,5.2,4.2
	s-2.3,4.1-5,4.1h-7.6L167.2,108.7z M174.6,131.2h-7.4V122h7.6c3.2,0,5.7,1.3,5.7,4.8C180.4,130.4,177.4,131.2,174.6,131.2z"/>
<path class="st0" d="M218.2,166h-43.3v-14.7h-5.8V166h-14.7v5.7h14.7v43.4H96.3v5.8h75.6c1.7,0,3-1.4,3-3v-46.1h46.2
	c1.7,0,3-1.4,3-3v-53.5h-5.9V166z"/>
<path class="st0" d="M119.5,136.7h5.8v-14.6h14.5v-5.8h-14.5V73.1h72.2v-5.8h-75.1c-1.7,0-3,1.4-3,3v46.1H73.3c-1.7,0-3,1.4-3,3
	v53.9h5.8v-51.1h43.4V136.7z"/>
<path class="st0" d="M304.6,116.4l-9.5-14.6v14.6h-3.3V97.2h4.1l8.6,13.6V97.2h3.3v19.2H304.6z"/>
<path class="st0" d="M325.2,109.8c-0.1,3.8-3.2,6.8-7,6.7c-3.8-0.1-6.8-3.2-6.7-7c0.1-3.7,3.1-6.7,6.8-6.7c3.7-0.1,6.8,2.9,6.9,6.6
	C325.2,109.5,325.2,109.6,325.2,109.8z M322,109.8c0.3-2-1.2-3.9-3.2-4.2c-2-0.3-3.9,1.2-4.2,3.2c0,0.3,0,0.6,0,0.9
	c-0.3,2,1.2,3.9,3.2,4.2c2,0.3,3.9-1.2,4.2-3.2C322.1,110.4,322.1,110.1,322,109.8z"/>
<path class="st0" d="M336.3,106.3h-1.1c-2.4,0-3.5,1.4-3.5,3.9v6.3h-3v-13.3h3v2.2c0.7-1.5,2.2-2.3,3.8-2.3h0.8L336.3,106.3z"/>
<path class="st0" d="M341,116.3c0.2,1.7,1.6,2.9,3.3,2.8c2.5,0,3.7-1.3,3.7-4v-1.4c-0.8,1.3-2.3,2-3.8,1.9c-3.5,0-6.4-2.9-6.4-6.4
	c0-3.5,2.9-6.4,6.4-6.4c1.6-0.2,3.1,0.6,3.9,1.9v-1.7h3v12.1c0.3,3.4-2.2,6.5-5.6,6.8c-0.4,0-0.8,0-1.2,0c-3,0.2-5.7-1.9-6.3-4.8
	L341,116.3z M348.1,109.3c-0.2-1.9-1.9-3.2-3.7-3.1s-3.2,1.9-3.1,3.7c0.2,1.8,1.6,3.1,3.4,3.1c1.8,0,3.4-1.4,3.4-3.3
	C348.1,109.6,348.1,109.5,348.1,109.3z"/>
<path class="st0" d="M366.9,112.6c-0.8,2.6-3.3,4.3-6,4.2c-3.9-0.3-6.8-3.6-6.5-7.5c0.2-3.4,2.9-6.1,6.2-6.5
	c3.3-0.3,6.2,2.2,6.5,5.5c0,0.4,0,0.9,0,1.3c0,0.3,0,0.7,0,1h-9.7c0,1.9,1.7,3.5,3.6,3.4c1.5,0.1,2.9-0.8,3.3-2.3L366.9,112.6z
	 M363.9,108.3c0-1.7-1.3-3-3-3c-0.1,0-0.1,0-0.2,0c-1.7-0.1-3.1,1.1-3.2,2.8c0,0.1,0,0.1,0,0.2H363.9z"/>
<path class="st0" d="M372,112c0.1,1.3,1.3,2.4,2.6,2.3c0,0,0.1,0,0.1,0c1.3,0,2-0.7,2-1.5s-0.5-1.2-1.5-1.4l-2-0.5
	c-2-0.2-3.5-1.8-3.5-3.8c0.2-2.5,2.3-4.4,4.8-4.3c2.4-0.3,4.6,1.3,5.1,3.7l-2.7,0.8c-0.1-1.2-1.2-2.1-2.4-2
	c-0.9-0.1-1.8,0.6-1.9,1.5c0,0.7,0.5,1.2,1.4,1.4l2,0.4c2.1,0.2,3.7,1.9,3.8,4c-0.1,2.5-2.3,4.4-4.7,4.2c-0.1,0-0.2,0-0.3,0
	c-2.6,0.3-4.9-1.4-5.4-4L372,112z"/>
<path class="st0" d="M390,116.4v-13.2h3v1.7c0.9-1.3,2.3-2.1,3.9-2.1c1.7-0.1,3.2,0.8,4,2.3c0.9-1.5,2.5-2.4,4.3-2.3
	c2.5-0.1,4.6,1.9,4.7,4.4c0,0.2,0,0.4,0,0.6v8.6h-3v-8c0.2-1.3-0.8-2.6-2.2-2.7c-0.1,0-0.3,0-0.4,0c-1.5,0-2.8,1.2-2.8,2.7
	c0,0.1,0,0.2,0,0.3v7.8h-3v-8.1c0.2-1.3-0.8-2.5-2.1-2.7c-0.2,0-0.3,0-0.5,0c-1.5,0-2.7,1.2-2.7,2.6c0,0.1,0,0.3,0,0.4v7.8
	L390,116.4z"/>
<path class="st0" d="M415.5,96.5c1.1,0,2.1,0.9,2.1,2.1s-0.9,2.1-2.1,2.1c-1.1,0-2.1-0.9-2.1-2.1S414.4,96.5,415.5,96.5z M414,116.4
	v-13.2h3v13.2L414,116.4z"/>
<path class="st0" d="M421.4,116.4V96.7h3.2v19.6H421.4z"/>
<path class="st0" d="M429,103.2h3v14.5c0.2,2.1-1.4,4-3.5,4.2c-0.1,0-0.3,0-0.4,0c-0.6,0-1.2-0.1-1.8-0.2v-2.6h1
	c1.2,0,1.6-0.6,1.6-1.7L429,103.2z M430.5,96.4c1.1,0,2.1,0.9,2.1,2.1c0,1.1-0.9,2.1-2.1,2.1c-1.1,0-2-0.9-2.1-2
	c-0.1-1.1,0.8-2.1,1.9-2.2c0.1,0,0.1,0,0.2,0V96.4z"/>
<path class="st0" d="M445.7,103.6l1.4-1.7l1.7,1.4l-1.4,1.7c1.1,1.3,1.7,3,1.7,4.7c0.2,3.7-2.7,6.8-6.4,7c-0.1,0-0.3,0-0.4,0
	c-1.2,0-2.4-0.3-3.4-0.8l-1.4,1.7l-1.7-1.4l1.4-1.7c-1.1-1.3-1.7-3-1.7-4.8c-0.2-3.7,2.7-6.8,6.4-7c0.1,0,0.3,0,0.4,0
	C443.4,102.8,444.7,103.1,445.7,103.6z M439.1,112.1l4.8-6c-0.5-0.3-1.1-0.4-1.7-0.4c-2.1,0-3.7,1.7-3.7,3.8c0,0.1,0,0.3,0,0.4
	C438.5,110.6,438.7,111.4,439.1,112.1L439.1,112.1z M445.9,109.8c0-0.8-0.2-1.5-0.5-2.2l-4.8,6c0.5,0.2,1,0.4,1.6,0.4
	c2.1,0,3.7-1.7,3.7-3.8C445.9,110,445.9,109.9,445.9,109.8z"/>
<path class="st0" d="M451.6,109.8v-2.8h7.7v2.8H451.6z"/>
<path class="st0" d="M481.1,109.8c-0.1,3.8-3.2,6.8-7,6.7c-3.8-0.1-6.8-3.2-6.7-7c0.1-3.7,3.1-6.7,6.8-6.7c3.7-0.1,6.8,2.9,6.9,6.6
	C481.1,109.5,481.1,109.6,481.1,109.8z M477.9,109.8c0.3-2-1.2-3.9-3.2-4.2c-2-0.3-3.9,1.2-4.2,3.2c0,0.3,0,0.6,0,0.9
	c-0.3,2,1.2,3.9,3.2,4.2c2,0.3,3.9-1.2,4.2-3.2C477.9,110.4,477.9,110.1,477.9,109.8z"/>
<path class="st0" d="M486.3,116.3c0.2,1.7,1.6,2.9,3.3,2.8c2.5,0,3.7-1.3,3.7-4v-1.4c-0.8,1.3-2.3,2-3.8,1.9c-3.5,0-6.4-2.9-6.4-6.4
	c0-3.5,2.9-6.4,6.4-6.4c1.6-0.2,3.1,0.6,3.9,1.9v-1.7h3v12.1c0.3,3.4-2.2,6.5-5.6,6.8c-0.4,0-0.8,0-1.2,0c-3,0.2-5.7-1.9-6.3-4.8
	L486.3,116.3z M493.4,109.3c-0.2-1.9-1.9-3.2-3.7-3.1s-3.2,1.9-3.1,3.7c0.2,1.8,1.6,3.1,3.4,3.1c1.8,0,3.4-1.4,3.4-3.3
	C493.5,109.6,493.5,109.5,493.4,109.3z"/>
<path class="st0" d="M291.6,152.5v-19.6h3v8.1c1-1.3,2.5-2.1,4.2-2c3.3,0,6.1,2.6,6.1,6c0,0.3,0,0.6-0.1,0.9c0.4,3.5-2.1,6.6-5.6,7
	c-0.2,0-0.4,0-0.6,0c-1.6,0.1-3.2-0.7-4.1-2.1v1.8H291.6z M298.2,141.8c-2,0-3.6,1.7-3.6,3.7c0,0.1,0,0.3,0,0.4
	c-0.3,2,1.2,3.9,3.2,4.2c0.1,0,0.2,0,0.4,0c2.1,0,3.6-1.6,3.6-4.2S300.3,141.8,298.2,141.8z"/>
<path class="st0" d="M309.8,132.5c1.1,0,2.1,0.9,2.1,2c0,1.1-0.9,2.1-2,2.1s-2.1-0.9-2.1-2c0,0,0,0,0,0
	C307.7,133.4,308.6,132.5,309.8,132.5C309.8,132.5,309.8,132.5,309.8,132.5z M308.2,152.4v-13.1h3v13.2L308.2,152.4z"/>
<path class="st0" d="M328.4,145.9c-0.1,3.8-3.2,6.8-7,6.7s-6.8-3.2-6.7-7c0.1-3.7,3.1-6.7,6.8-6.7c3.7-0.1,6.8,2.9,6.9,6.6
	C328.4,145.6,328.4,145.8,328.4,145.9z M325.2,145.9c0.2-2-1.3-3.8-3.4-4s-3.8,1.3-4,3.4c0,0.2,0,0.4,0,0.7c-0.3,2,1.1,4,3.1,4.3
	c2,0.3,4-1.1,4.3-3.1C325.3,146.7,325.3,146.3,325.2,145.9z"/>
<path class="st0" d="M338,152.5h-3l-5.4-13.2h3.5l3.5,9.4l3.4-9.4h3.3L338,152.5z"/>
<path class="st0" d="M347.3,132.5c1.1,0,2.1,0.9,2.1,2c0,1.1-0.9,2.1-2,2.1c-1.1,0-2.1-0.9-2.1-2c0,0,0,0,0,0
	C345.3,133.4,346.2,132.5,347.3,132.5z M345.8,152.4v-13.1h3v13.2L345.8,152.4z"/>
<path class="st0" d="M357.2,139.3h2.7v2.8h-2.7v6c0,1.1,0.5,1.6,1.7,1.6c0.4,0,0.7,0,1.1,0v2.6c-0.6,0.2-1.3,0.3-1.9,0.3
	c-2,0.2-3.8-1.3-3.9-3.3c0-0.2,0-0.4,0-0.6v-6.6h-2.4v-2.8h0.7c1,0.1,1.9-0.7,2-1.7c0-0.1,0-0.2,0-0.3v-2h3L357.2,139.3z"/>
<path class="st0" d="M375,148.8c-0.8,2.6-3.3,4.3-6,4.2c-3.9-0.2-6.9-3.4-6.7-7.3c0.1-3.5,2.9-6.4,6.4-6.7c3.4-0.2,6.3,2.5,6.5,5.9
	c0,0.3,0,0.7,0,1c0,0.3,0,0.7,0,1h-9.7c0,1.9,1.7,3.5,3.6,3.4c1.5,0.1,2.9-0.8,3.3-2.3L375,148.8z M372,144.5c0-1.7-1.3-3-3-3
	c-0.1,0-0.1,0-0.2,0c-1.7-0.1-3.1,1.1-3.2,2.8c0,0.1,0,0.1,0,0.2H372z"/>
<path class="st0" d="M381.6,152.5h-3v-13.2h3v1.7c0.8-1.4,2.3-2.2,3.9-2.1c2.6-0.1,4.8,2,4.8,4.6c0,0.2,0,0.4,0,0.7v8.4h-3.2v-7.8
	c0-1.6-0.7-3-2.7-3c-1.5,0-2.7,1.2-2.7,2.8c0,0.1,0,0.2,0,0.3L381.6,152.5z"/>
<path class="st0" d="M395.9,148.2c0.1,1.3,1.3,2.3,2.6,2.2c0,0,0,0,0.1,0c1.3,0,2-0.7,2-1.5s-0.5-1.2-1.5-1.4l-2-0.5
	c-2-0.2-3.5-1.8-3.5-3.8c0.2-2.5,2.3-4.4,4.9-4.3c2.4-0.3,4.6,1.3,5.1,3.7l-2.7,0.8c-0.2-1.2-1.2-2.1-2.4-2
	c-0.9-0.1-1.8,0.6-1.9,1.5c0,0,0,0,0,0c0,0.7,0.6,1.3,1.3,1.4l2,0.4c2.1,0.2,3.7,1.9,3.8,4c-0.1,2.5-2.3,4.4-4.7,4.2
	c-0.1,0-0.2,0-0.2,0c-2.6,0.3-5-1.4-5.5-4L395.9,148.2z"/>
<path class="st0" d="M413.9,144.9l5.5,7.6h-3.9l-3.9-5.4l-1.6,1.7v3.7h-3v-19.6h3v11.7l5.1-5.3h4.1L413.9,144.9z"/>
<path class="st0" d="M424.8,145l3.5-0.4c0.8,0,1-0.5,1-1c0-1.1-0.8-2-2.5-2c-1.4-0.1-2.6,1-2.7,2.4l-2.9-0.7
	c0.4-2.7,2.9-4.6,5.5-4.3c4.1,0,5.6,2.3,5.6,4.9v6.5c0,0.7,0.1,1.4,0.2,2.1h-3c-0.1-0.6-0.2-1.1-0.2-1.7c-0.9,1.4-2.4,2.1-4.1,2.1
	c-2.3,0.2-4.3-1.5-4.5-3.8c0-0.1,0-0.1,0-0.2C420.8,146.8,422.6,145,424.8,145z M429.2,147v-0.6l-3.4,0.5c-1,0.2-1.8,0.7-1.8,1.8
	c0,1,0.8,1.7,1.8,1.7c0,0,0.1,0,0.1,0c1.7,0.2,3.1-1,3.3-2.7C429.2,147.5,429.2,147.3,429.2,147z"/>
<path class="st0" d="M436.3,157.7v-18.3h3v1.8c0.9-1.4,2.5-2.2,4.2-2.1c3.3,0,6.1,2.6,6.1,6c0,0.3,0,0.6-0.1,0.9
	c0.4,3.5-2.2,6.6-5.6,6.9c-0.2,0-0.4,0-0.5,0c-1.6,0.1-3-0.6-4-1.8v6.6H436.3z M442.9,141.8c-2,0.1-3.6,1.7-3.6,3.7
	c0,0.1,0,0.2,0,0.3c-0.3,2,1,3.8,3,4.1c2,0.3,3.8-1,4.1-3c0.1-0.4,0.1-0.8,0-1.1c0.2-2-1.2-3.8-3.1-4
	C443.2,141.8,443.1,141.8,442.9,141.8z"/>
<path class="st0" d="M464.7,148.8c-0.8,2.6-3.3,4.3-6,4.2c-3.9-0.1-6.9-3.4-6.8-7.3c0.1-3.5,2.9-6.4,6.4-6.7
	c3.3-0.3,6.2,2.2,6.5,5.5c0,0.4,0,0.9,0,1.3c0,0.3,0,0.7,0,1h-9.7c0,1.9,1.7,3.5,3.6,3.4c0,0,0,0,0,0c1.5,0.1,2.9-0.8,3.3-2.3
	L464.7,148.8z M461.6,144.5c0-1.7-1.4-3-3.1-2.9c0,0-0.1,0-0.1,0c-1.7-0.1-3.1,1.1-3.2,2.8c0,0.1,0,0.1,0,0.2L461.6,144.5z"/>
<path class="st0" d="M468.1,152.5v-19.6h3v19.6H468.1z"/>
<path class="st0" d="M477.1,132.5c1.1,0,2.1,0.9,2.1,2.1s-0.9,2.1-2.1,2.1c-1.1,0-2.1-0.9-2.1-2.1S476,132.5,477.1,132.5z
	 M475.6,152.4v-13.1h3v13.2L475.6,152.4z"/>
<path class="st0" d="M485,152.5c0.2,1.7,1.6,2.9,3.3,2.8c2.5,0,3.7-1.3,3.7-4V150c-0.8,1.3-2.3,2-3.8,1.9c-3.5,0-6.4-2.9-6.4-6.4
	c0-3.5,2.9-6.4,6.4-6.4c1.6-0.2,3.1,0.6,3.9,1.9v-1.7h3v12.1c0.3,3.4-2.2,6.5-5.6,6.8c-0.4,0-0.8,0-1.2,0c-3,0.2-5.7-1.9-6.3-4.8
	L485,152.5z M492.1,145.5c-0.2-1.9-1.9-3.2-3.7-3.1c-1.9,0.2-3.2,1.9-3.1,3.7c0.2,1.7,1.6,3,3.3,3.1c1.9,0.1,3.4-1.4,3.5-3.2
	C492.1,145.8,492.1,145.7,492.1,145.5z"/>
<path class="st0" d="M511,148.8c-0.8,2.6-3.3,4.3-6,4.2c-3.9-0.1-6.9-3.4-6.8-7.3c0.1-3.5,2.9-6.4,6.4-6.7c3.3-0.3,6.2,2.2,6.5,5.5
	c0,0.4,0,0.9,0,1.3c0,0.3,0,0.7,0,1h-9.7c0,1.9,1.7,3.5,3.6,3.4c0,0,0,0,0,0c1.5,0.1,2.9-0.8,3.3-2.3L511,148.8z M507.9,144.5
	c0-1.7-1.3-3-3-3c-0.1,0-0.2,0-0.3,0c-1.7-0.1-3.1,1.1-3.2,2.8c0,0.1,0,0.1,0,0.2H507.9z"/>
<path class="st0" d="M296.5,189.1c-2.7,0.1-4.9-2.1-5-4.7c0-0.2,0-0.4,0-0.5v-8.3h3.2v7.8c0,1.6,0.8,3,2.7,3c1.4,0.1,2.7-1,2.8-2.5
	c0-0.2,0-0.4,0-0.5v-7.8h3v10.8c0,0.8,0,1.6,0,2.4h-3c0-0.5,0-1,0-1.4C299.2,188.4,297.9,189.1,296.5,189.1z"/>
<path class="st0" d="M310.7,188.7h-3v-13.2h3v1.7c0.8-1.4,2.3-2.2,3.9-2.1c2.6-0.1,4.7,1.9,4.8,4.5c0,0.2,0,0.5,0,0.7v8.4h-3v-7.9
	c0-1.6-0.7-3-2.7-3c-1.5,0-2.8,1.3-2.8,2.8c0,0.1,0,0.1,0,0.2L310.7,188.7z"/>
<path class="st0" d="M324.9,168.7c1.1,0,2,0.9,2.1,2c0,0,0,0,0,0.1c0,1.1-0.9,2.1-2.1,2.1s-2.1-0.9-2.1-2.1l0,0
	C322.8,169.6,323.8,168.7,324.9,168.7L324.9,168.7z M323.4,188.6v-13.1h3v13.2L323.4,188.6z"/>
<path class="st0" d="M337.6,188.7h-3l-5.4-13.2h3.5l3.5,9.4l3.4-9.4h3.3L337.6,188.7z"/>
<path class="st0" d="M356.6,184.9c-0.8,2.6-3.3,4.3-6,4.2c-3.9-0.1-6.9-3.4-6.8-7.3c0.1-3.5,2.9-6.4,6.4-6.7
	c3.3-0.3,6.2,2.2,6.5,5.5c0,0.4,0,0.9,0,1.3c0,0.3,0,0.7,0,1H347c0.1,1.9,1.7,3.5,3.6,3.4c1.5,0.1,2.9-0.9,3.3-2.3L356.6,184.9z
	 M353.6,180.6c0-1.7-1.3-3-3-3c-0.1,0-0.2,0-0.3,0c-1.7,0-3.1,1.3-3.2,3H353.6z"/>
<path class="st0" d="M367.8,178.6h-1c-2.4,0-3.6,1.4-3.6,3.9v6.3h-3v-13.3h3v2.3c0.7-1.5,2.2-2.4,3.8-2.3c0.3,0,0.6,0,0.8,0
	L367.8,178.6z"/>
<path class="st0" d="M372.2,184.4c0.1,1.3,1.3,2.3,2.7,2.2c1.3,0,2-0.7,2-1.5s-0.5-1.3-1.5-1.5l-2-0.4c-2-0.2-3.5-1.9-3.6-3.9
	c0.2-2.5,2.3-4.4,4.9-4.3c2.4-0.3,4.6,1.3,5.1,3.7l-2.7,0.8c-0.1-1.2-1.2-2.1-2.4-2c-0.9-0.1-1.8,0.6-1.9,1.5c0,0.7,0.6,1.3,1.3,1.4
	l2,0.4c2.1,0.2,3.8,1.9,3.9,4c-0.1,2.5-2.3,4.4-4.7,4.2c-0.1,0-0.2,0-0.3,0c-2.6,0.3-4.9-1.4-5.4-4L372.2,184.4z"/>
<path class="st0" d="M384.9,168.7c1.1,0,2.1,0.9,2.1,2c0,0,0,0,0,0c0,1.1-0.9,2-2,2c0,0,0,0-0.1,0c-1.1,0-2-0.9-2-2c0,0,0,0,0-0.1
	C382.8,169.6,383.7,168.7,384.9,168.7C384.9,168.7,384.9,168.7,384.9,168.7z M383.3,188.6v-13.1h3v13.2L383.3,188.6z"/>
<path class="st0" d="M394.8,175.5h2.7v2.8h-2.7v6c0,1.2,0.5,1.7,1.7,1.7c0.4,0,0.7,0,1.1,0v2.6c-0.6,0.2-1.3,0.3-1.9,0.3
	c-2,0.2-3.8-1.3-4-3.3c0-0.2,0-0.4,0-0.6v-6.6h-2.4v-2.8h0.7c1,0.1,1.9-0.7,2-1.7c0-0.1,0-0.3,0-0.4v-2h3L394.8,175.5z"/>
<path class="st0" d="M412.6,184.9c-0.8,2.6-3.3,4.3-6,4.2c-3.9-0.1-6.9-3.4-6.8-7.3c0.1-3.5,2.9-6.4,6.4-6.7
	c3.3-0.3,6.2,2.2,6.5,5.5c0,0.4,0,0.9,0,1.3c0,0.3,0,0.7,0,1H403c0.1,1.9,1.7,3.5,3.6,3.4c1.5,0.2,2.9-0.8,3.3-2.3L412.6,184.9z
	 M409.6,180.6c0-1.7-1.3-3-3-3c-0.1,0-0.1,0-0.2,0c-1.7-0.1-3.1,1.1-3.2,2.8c0,0.1,0,0.1,0,0.2H409.6z"/>
<path class="st0" d="M420,175.5h2.7v2.8H420v6c0,1.2,0.5,1.7,1.7,1.7c0.4,0,0.7,0,1.1,0v2.6c-0.6,0.2-1.3,0.3-1.9,0.3
	c-2,0.2-3.8-1.3-4-3.4c0-0.2,0-0.4,0-0.6v-6.6h-2.4v-2.8h0.7c1,0.1,1.9-0.7,2-1.7c0-0.1,0-0.3,0-0.4v-2h2.9L420,175.5z"/>
<rect x="0" y="17.9" class="st1" width="560" height="252.2"/>
</svg>
