<svg id="NMBU_logo" xmlns="http://www.w3.org/2000/svg" viewBox="0 0 185.67 83.62" width="100%" height="100%"><defs><style>.cls-1{fill:#fff;}.cls-2{fill:none;}</style></defs><title>NMBUwhite</title><polygon class="cls-1" points="23.18 63.71 18.49 56.28 16.37 56.28 16.37 67.25 18.34 67.25 18.34 59.71 23.09 67.25 25.15 67.25 25.15 56.28 23.18 56.28 23.18 63.71"/><polygon class="cls-1" points="46.08 54.94 46.08 43.97 43.52 43.97 40.63 51.79 37.75 43.97 35.06 43.97 35.06 54.94 36.99 54.94 36.99 47.02 39.82 54.79 41.29 54.79 44.14 47.11 44.14 54.94 46.08 54.94"/><path class="cls-1" d="M78.28,16.28V23c0,1.56-.71,2.63-2.3,2.63S73.67,24.57,73.67,23V16.28h-2V23c0,2.62,1.47,4.41,4.3,4.41s4.3-1.79,4.3-4.41V16.28Z"/><path class="cls-1" d="M61.61,31.36A2.85,2.85,0,0,0,60.34,29a4.62,4.62,0,0,0-2.54-.6H53.44v11H57.8a4.66,4.66,0,0,0,2.93-.74,3,3,0,0,0,1.11-2.47,2.68,2.68,0,0,0-1.57-2.47A2.51,2.51,0,0,0,61.61,31.36Zm-6.19-1.27h2.46c.9,0,1.71.34,1.71,1.39s-.76,1.36-1.66,1.36H55.42Zm2.46,7.47H55.42V34.51h2.52c1.05,0,1.88.42,1.88,1.6S58.81,37.56,57.88,37.56Z"/><path class="cls-1" d="M72.36,49.11H58V44.25H56.08v4.86H51.19V51h4.89V65.39H31.93V67.3H57a1,1,0,0,0,1-1V51H73.31a1,1,0,0,0,1-1V32.26H72.36Z"/><path class="cls-1" d="M39.62,39.4h1.91V34.56h4.8V32.65h-4.8V18.29H65.47V16.37H40.57a1,1,0,0,0-1,1V32.65H24.3a1,1,0,0,0-1,1V51.51h1.92V34.56H39.62Z"/><path class="cls-1" d="M101,32.65l-3.14-4.83v4.83H96.77V26.28h1.37L101,30.8V26.28h1.08v6.37Z"/><path class="cls-1" d="M107.83,30.46a2.27,2.27,0,1,1-2.28-2.32A2.23,2.23,0,0,1,107.83,30.46Zm-1.06,0a1.23,1.23,0,1,0-2.44,0,1.23,1.23,0,1,0,2.44,0Z"/><path class="cls-1" d="M111.49,29.3l-.35,0c-.81,0-1.17.47-1.17,1.28v2.09h-1V28.27h1V29a1.33,1.33,0,0,1,1.27-.75l.28,0Z"/><path class="cls-1" d="M113.05,32.64a1.06,1.06,0,0,0,1.1.94c.82,0,1.24-.42,1.24-1.31v-.46a1.41,1.41,0,0,1-1.27.64,2.13,2.13,0,0,1,0-4.26,1.36,1.36,0,0,1,1.29.64v-.56h1v4a2.06,2.06,0,0,1-2.25,2.25,2,2,0,0,1-2.08-1.6Zm2.36-2.32a1.13,1.13,0,1,0-1.12,1.24A1.11,1.11,0,0,0,115.41,30.32Z"/><path class="cls-1" d="M121.66,31.4a2,2,0,0,1-2,1.38,2.33,2.33,0,0,1-.1-4.64,2,2,0,0,1,2.14,2.27,1.31,1.31,0,0,1,0,.33h-3.2a1.17,1.17,0,0,0,1.19,1.14,1.06,1.06,0,0,0,1.1-.76Zm-1-1.42a1,1,0,0,0-1.07-1,1,1,0,0,0-1.07,1Z"/><path class="cls-1" d="M123.33,31.21a.81.81,0,0,0,.89.75c.43,0,.65-.24.65-.51s-.16-.41-.51-.48l-.65-.15a1.31,1.31,0,0,1-1.17-1.27,1.51,1.51,0,0,1,1.6-1.41,1.54,1.54,0,0,1,1.69,1.22l-.88.25a.74.74,0,0,0-.81-.65.57.57,0,0,0-.63.5c0,.23.18.4.45.46l.66.13a1.37,1.37,0,0,1,1.26,1.33,1.49,1.49,0,0,1-1.66,1.4,1.64,1.64,0,0,1-1.8-1.32Z"/><path class="cls-1" d="M129.32,32.65V28.27h1v.56a1.49,1.49,0,0,1,1.29-.68,1.39,1.39,0,0,1,1.32.77,1.52,1.52,0,0,1,1.42-.77,1.5,1.5,0,0,1,1.54,1.66v2.84h-1V30a.81.81,0,0,0-.85-.9.91.91,0,0,0-.91,1v2.6h-1V30a.8.8,0,0,0-.85-.9.89.89,0,0,0-.9,1v2.6Z"/><path class="cls-1" d="M137.77,26.05a.68.68,0,1,1,0,1.36.68.68,0,0,1,0-1.36Zm-.51,6.6V28.27h1v4.38Z"/><path class="cls-1" d="M139.73,32.65V26.14h1.05v6.51Z"/><path class="cls-1" d="M142.22,28.27h1v4.82a1.28,1.28,0,0,1-1.3,1.4,1.74,1.74,0,0,1-.6-.08v-.86l.32,0c.39,0,.54-.2.54-.56Zm.51-2.23a.68.68,0,1,1-.68.69A.68.68,0,0,1,142.73,26Z"/><path class="cls-1" d="M147.78,28.43l.47-.58.55.46-.46.58a2.38,2.38,0,0,1,.55,1.57,2.23,2.23,0,0,1-2.27,2.32,2.2,2.2,0,0,1-1.13-.28l-.45.56-.57-.46.45-.56a2.34,2.34,0,0,1-.56-1.58,2.22,2.22,0,0,1,2.26-2.32A2.32,2.32,0,0,1,147.78,28.43Zm-2.21,2.79,1.6-2a1.17,1.17,0,0,0-.55-.13,1.24,1.24,0,0,0-1.22,1.38A1.61,1.61,0,0,0,145.57,31.22Zm2.27-.76a1.65,1.65,0,0,0-.16-.74l-1.59,2a1.18,1.18,0,0,0,.53.12A1.24,1.24,0,0,0,147.84,30.46Z"/><path class="cls-1" d="M149.72,30.48v-.92h2.54v.92Z"/><path class="cls-1" d="M159.5,30.46a2.27,2.27,0,1,1-2.28-2.32A2.23,2.23,0,0,1,159.5,30.46Zm-1.06,0a1.23,1.23,0,1,0-2.44,0,1.23,1.23,0,1,0,2.44,0Z"/><path class="cls-1" d="M161.24,32.64a1.07,1.07,0,0,0,1.1.94c.82,0,1.24-.42,1.24-1.31v-.46a1.41,1.41,0,0,1-1.27.64,2.13,2.13,0,0,1,0-4.26,1.35,1.35,0,0,1,1.29.64v-.56h1v4a2.06,2.06,0,0,1-2.25,2.25,2,2,0,0,1-2.08-1.6Zm2.36-2.32a1.13,1.13,0,1,0-1.12,1.24A1.11,1.11,0,0,0,163.6,30.32Z"/><path class="cls-1" d="M96.68,44.64V38.13h1V40.8a1.59,1.59,0,0,1,1.38-.66,2,2,0,0,1,2,2.28A2.09,2.09,0,0,1,99,44.74a1.52,1.52,0,0,1-1.35-.69v.59Zm2.19-3.57a1.21,1.21,0,0,0-1.18,1.36,1.23,1.23,0,0,0,1.18,1.39c.68,0,1.18-.52,1.18-1.39S99.56,41.07,98.87,41.07Z"/><path class="cls-1" d="M102.71,38a.68.68,0,1,1-.67.68A.67.67,0,0,1,102.71,38Zm-.51,6.6V40.26h1v4.38Z"/><path class="cls-1" d="M108.87,42.44a2.27,2.27,0,1,1-2.28-2.32A2.23,2.23,0,0,1,108.87,42.44Zm-1.05,0a1.23,1.23,0,1,0-2.45,0,1.24,1.24,0,1,0,2.45,0Z"/><path class="cls-1" d="M112.07,44.64h-1l-1.78-4.38h1.15l1.16,3.13,1.13-3.13h1.1Z"/><path class="cls-1" d="M115.15,38a.68.68,0,1,1-.67.68A.68.68,0,0,1,115.15,38Zm-.51,6.6V40.26h1v4.38Z"/><path class="cls-1" d="M118.44,40.26h.9v.92h-.9v2c0,.38.17.54.55.54a2.17,2.17,0,0,0,.36,0v.86a1.56,1.56,0,0,1-.64.1,1.21,1.21,0,0,1-1.31-1.3V41.18h-.81v-.92h.23a.62.62,0,0,0,.67-.68v-.66h1Z"/><path class="cls-1" d="M124.33,43.39a2,2,0,0,1-2,1.38,2.33,2.33,0,0,1-.1-4.65,2.05,2.05,0,0,1,2.14,2.28,1.38,1.38,0,0,1,0,.33h-3.2a1.17,1.17,0,0,0,1.19,1.14,1.06,1.06,0,0,0,1.1-.76Zm-1-1.42a1,1,0,0,0-1.07-1,1,1,0,0,0-1.07,1Z"/><path class="cls-1" d="M126.52,44.64h-1V40.26h1v.58a1.46,1.46,0,0,1,1.29-.71,1.56,1.56,0,0,1,1.59,1.74v2.77h-1.05V42.05c0-.54-.24-1-.9-1a.91.91,0,0,0-.9,1Z"/><path class="cls-1" d="M131.25,43.2a.81.81,0,0,0,.89.74c.43,0,.65-.23.65-.5s-.16-.41-.51-.48l-.65-.15a1.31,1.31,0,0,1-1.17-1.27,1.52,1.52,0,0,1,1.61-1.42,1.55,1.55,0,0,1,1.69,1.23l-.88.25a.76.76,0,0,0-.81-.66.57.57,0,0,0-.63.51.47.47,0,0,0,.44.45l.66.14a1.37,1.37,0,0,1,1.26,1.33,1.49,1.49,0,0,1-1.65,1.4,1.65,1.65,0,0,1-1.81-1.32Z"/><path class="cls-1" d="M137.23,42.11l1.83,2.53h-1.28l-1.28-1.79-.54.56v1.23h-1V38.13h1V42l1.68-1.77H139Z"/><path class="cls-1" d="M140.84,42.13,142,42c.26,0,.33-.16.33-.32,0-.37-.25-.66-.83-.66a.85.85,0,0,0-.9.79l-.95-.22a1.71,1.71,0,0,1,1.84-1.43c1.35,0,1.86.77,1.86,1.64v2.17a3.73,3.73,0,0,0,.06.71h-1a2.26,2.26,0,0,1-.05-.56,1.54,1.54,0,0,1-1.35.69,1.37,1.37,0,0,1-1.48-1.32A1.34,1.34,0,0,1,140.84,42.13Zm1.45.69v-.2l-1.14.17c-.33.06-.59.24-.59.6a.58.58,0,0,0,.64.56A1,1,0,0,0,142.29,42.82Z"/><path class="cls-1" d="M144.66,46.34V40.26h1v.59a1.56,1.56,0,0,1,1.39-.69,2,2,0,0,1,2,2.28,2.09,2.09,0,0,1-2.05,2.3,1.58,1.58,0,0,1-1.33-.6v2.2Zm2.2-5.25a1.21,1.21,0,0,0-1.17,1.35,1.19,1.19,0,1,0,2.35,0A1.2,1.2,0,0,0,146.86,41.09Z"/><path class="cls-1" d="M154.06,43.39a2,2,0,0,1-2,1.38,2.33,2.33,0,0,1-.11-4.65,2,2,0,0,1,2.14,2.28,1.38,1.38,0,0,1,0,.33h-3.2a1.17,1.17,0,0,0,1.2,1.14,1.06,1.06,0,0,0,1.1-.76Zm-1-1.42A1,1,0,0,0,152,41a1,1,0,0,0-1.07,1Z"/><path class="cls-1" d="M155.2,44.64V38.13h1v6.51Z"/><path class="cls-1" d="M158.19,38a.68.68,0,1,1,0,1.36.68.68,0,0,1,0-1.36Zm-.51,6.6V40.26h1v4.38Z"/><path class="cls-1" d="M160.8,44.63a1.06,1.06,0,0,0,1.1.94c.82,0,1.24-.42,1.24-1.31V43.8a1.41,1.41,0,0,1-1.27.64,2.13,2.13,0,0,1,0-4.26,1.35,1.35,0,0,1,1.29.64v-.56h1v4a2.07,2.07,0,0,1-2.25,2.26,2,2,0,0,1-2.08-1.6Zm2.36-2.32A1.13,1.13,0,1,0,162,43.55,1.12,1.12,0,0,0,163.16,42.31Z"/><path class="cls-1" d="M169.41,43.39a2,2,0,0,1-2,1.38,2.33,2.33,0,0,1-.11-4.65,2,2,0,0,1,2.14,2.28,1.38,1.38,0,0,1,0,.33h-3.2a1.17,1.17,0,0,0,1.2,1.14,1.05,1.05,0,0,0,1.09-.76Zm-1-1.42a1,1,0,0,0-1.08-1,1,1,0,0,0-1.07,1Z"/><path class="cls-1" d="M98.29,56.75A1.62,1.62,0,0,1,96.63,55V52.25h1.05v2.57c0,.54.25,1,.88,1a.87.87,0,0,0,.91-1V52.25h1v3.57a6.9,6.9,0,0,0,0,.8h-1a3,3,0,0,1,0-.48A1.42,1.42,0,0,1,98.29,56.75Z"/><path class="cls-1" d="M103,56.62h-1V52.25h1v.58a1.46,1.46,0,0,1,1.29-.71,1.55,1.55,0,0,1,1.59,1.73v2.77h-1V54c0-.54-.24-1-.89-1a.92.92,0,0,0-.91,1Z"/><path class="cls-1" d="M107.72,50a.67.67,0,0,1,.68.68.68.68,0,0,1-1.36,0A.68.68,0,0,1,107.72,50Zm-.51,6.59V52.25h1v4.37Z"/><path class="cls-1" d="M111.92,56.62h-1l-1.78-4.37h1.16l1.15,3.12,1.14-3.12h1.09Z"/><path class="cls-1" d="M118.23,55.37a2,2,0,0,1-2,1.39,2.33,2.33,0,0,1-.11-4.65,2,2,0,0,1,2.14,2.27,1.43,1.43,0,0,1,0,.34h-3.2a1.18,1.18,0,0,0,1.2,1.14,1.06,1.06,0,0,0,1.1-.77Zm-1-1.42a1,1,0,0,0-1.08-1,1.06,1.06,0,0,0-1.07,1Z"/><path class="cls-1" d="M121.93,53.28l-.34,0c-.81,0-1.18.47-1.18,1.29v2.08h-1V52.25h1V53a1.31,1.31,0,0,1,1.26-.76,1.28,1.28,0,0,1,.28,0Z"/><path class="cls-1" d="M123.42,55.19a.83.83,0,0,0,.89.74c.44,0,.66-.23.66-.5s-.16-.42-.51-.49l-.65-.14a1.33,1.33,0,0,1-1.18-1.28,1.52,1.52,0,0,1,1.61-1.41,1.55,1.55,0,0,1,1.69,1.22l-.88.26a.75.75,0,0,0-.81-.66.57.57,0,0,0-.63.5.47.47,0,0,0,.44.46l.67.14A1.38,1.38,0,0,1,126,55.36a1.49,1.49,0,0,1-1.66,1.4,1.64,1.64,0,0,1-1.8-1.32Z"/><path class="cls-1" d="M127.61,50a.68.68,0,0,1,.69.68.67.67,0,0,1-.69.67.66.66,0,0,1-.67-.67A.67.67,0,0,1,127.61,50Zm-.51,6.59V52.25h1v4.37Z"/><path class="cls-1" d="M130.9,52.25h.9v.92h-.9v2c0,.39.17.55.55.55a1.89,1.89,0,0,0,.36,0v.87a1.56,1.56,0,0,1-.64.1,1.21,1.21,0,0,1-1.31-1.31v-2.2h-.81v-.92h.23a.62.62,0,0,0,.67-.69v-.65h1Z"/><path class="cls-1" d="M136.79,55.37a2,2,0,0,1-2,1.39,2.33,2.33,0,0,1-.11-4.65,2,2,0,0,1,2.14,2.27,1.43,1.43,0,0,1,0,.34h-3.2a1.18,1.18,0,0,0,1.2,1.14,1,1,0,0,0,1.09-.77Zm-1-1.42a1,1,0,0,0-1.07-1,1,1,0,0,0-1.07,1Z"/><path class="cls-1" d="M139.26,52.25h.91v.92h-.91v2c0,.39.17.55.55.55a1.89,1.89,0,0,0,.36,0v.87a1.53,1.53,0,0,1-.63.1,1.22,1.22,0,0,1-1.32-1.31v-2.2h-.81v-.92h.23a.62.62,0,0,0,.67-.69v-.65h.95Z"/><rect class="cls-2" width="185.67" height="83.62"/></svg>